<?xml version="1.0" encoding="utf-8"?>
<!-- Generator: Adobe Illustrator 27.3.1, SVG Export Plug-In . SVG Version: 6.00 Build 0)  -->
<svg version="1.1" id="Layer_1" xmlns="http://www.w3.org/2000/svg" xmlns:xlink="http://www.w3.org/1999/xlink" x="0px" y="0px"
	 viewBox="0 0 386.1 91.7" style="enable-background:new 0 0 386.1 91.7;" xml:space="preserve">
<style type="text/css">
	.st0{fill:url(#SVGID_1_);}
	.st1{fill:url(#SVGID_00000034050183832571067610000002567230353000114357_);}
	.st2{fill:url(#SVGID_00000035497430624514335570000006596927678045395103_);}
	.st3{fill:url(#SVGID_00000131361624441565579680000017174026364946138798_);}
	.st4{fill:url(#SVGID_00000020371402219111569860000018004997946503842727_);}
	.st5{fill:#FFFFFF;}
</style>
<g>
	<g>
		<g>
			
				<linearGradient id="SVGID_1_" gradientUnits="userSpaceOnUse" x1="7.0009" y1="5.0825" x2="43.8409" y2="41.9125" gradientTransform="matrix(1 0 0 -1 0 87.2803)">
				<stop  offset="0" style="stop-color:#CE8CF9"/>
				<stop  offset="1.000000e-02" style="stop-color:#CE8CF9"/>
				<stop  offset="1" style="stop-color:#9447C3"/>
			</linearGradient>
			<path class="st0" d="M60.7,43.7L38.4,89.2c-0.8,1.6-2.4,2.5-4.1,2.5H4.6c-3.4,0-5.6-3.5-4.1-6.6l28.5-58.1l0-0.1l3-6
				c2.6-5.3,6.5-9.7,11.3-12.7L60.7,43.7L60.7,43.7z"/>
			
				<linearGradient id="SVGID_00000129915003628759584590000015649332517318620815_" gradientUnits="userSpaceOnUse" x1="90.9728" y1="61.6601" x2="90.9728" y2="3.9401" gradientTransform="matrix(1 0 0 -1 0 87.2803)">
				<stop  offset="0" style="stop-color:#CE8CF9"/>
				<stop  offset="1.000000e-02" style="stop-color:#CE8CF9"/>
				<stop  offset="1" style="stop-color:#9447C3"/>
			</linearGradient>
			<path style="fill:url(#SVGID_00000129915003628759584590000015649332517318620815_);" d="M116.7,91.7H87c-1.7,0-3.3-1-4.1-2.5
				L60.7,43.7L78,8.3c4.8,3.1,8.7,7.4,11.3,12.7l3,6l28.5,58.1C122.3,88.2,120.1,91.7,116.7,91.7L116.7,91.7z"/>
			
				<linearGradient id="SVGID_00000156570714540102103630000001835413638441823406_" gradientUnits="userSpaceOnUse" x1="5.3133" y1="63.8651" x2="78.0432" y2="63.8651" gradientTransform="matrix(1 0 0 -1 0 87.2803)">
				<stop  offset="0" style="stop-color:#CE8CF9"/>
				<stop  offset="1.000000e-02" style="stop-color:#CE8CF9"/>
				<stop  offset="1" style="stop-color:#9447C3"/>
			</linearGradient>
			<path style="fill:url(#SVGID_00000156570714540102103630000001835413638441823406_);" d="M78,8.3L60.7,43.7L43.3,8.3
				C48.4,5,54.4,3.1,60.7,3.1S73,5,78,8.3L78,8.3z"/>
			
				<linearGradient id="SVGID_00000074410954373677900190000016304503011669391014_" gradientUnits="userSpaceOnUse" x1="5.3133" y1="63.8651" x2="78.0432" y2="63.8651" gradientTransform="matrix(1 0 0 -1 0 87.2803)">
				<stop  offset="0" style="stop-color:#CE8CF9"/>
				<stop  offset="1.000000e-02" style="stop-color:#CE8CF9"/>
				<stop  offset="1" style="stop-color:#9447C3"/>
			</linearGradient>
			<path style="fill:url(#SVGID_00000074410954373677900190000016304503011669391014_);" d="M78,8.3L60.7,43.7L43.3,8.3
				C48.4,5,54.4,3.1,60.7,3.1S73,5,78,8.3L78,8.3z"/>
		</g>
		
			<linearGradient id="SVGID_00000001649447996441680970000004758862740007099545_" gradientUnits="userSpaceOnUse" x1="42.3832" y1="63.8701" x2="79.4632" y2="63.8701" gradientTransform="matrix(1 0 0 -1 0 87.2803)">
			<stop  offset="0" style="stop-color:#CE8CF9"/>
			<stop  offset="1.000000e-02" style="stop-color:#CE8CF9"/>
			<stop  offset="1" style="stop-color:#9447C3"/>
		</linearGradient>
		<path style="fill:url(#SVGID_00000001649447996441680970000004758862740007099545_);" d="M89.4,21c-2.6-5.3-6.5-9.7-11.3-12.7
			C73,5,67,3.1,60.7,3.1S48.4,4.9,43.3,8.3C38.5,11.3,34.6,15.7,32,21l-3,6l3-5.3c3.8-6.6,13.4-6.5,17,0.2l11.6,21.7L72.3,22
			c3.6-6.8,13.2-6.9,17-0.2l3,5.3L89.4,21L89.4,21z"/>
	</g>
	<g>
		<path class="st5" d="M172.9,23c8.4,0,14.9,3.6,17.8,8.7h0.4c-0.1-0.9-0.2-1.9-0.2-4.9v-2.1h13.6v55.1h-13.6v-2.6
			c0-2.5,0.1-3.9,0.2-5.1h-0.4c-3.2,5.7-10,9.4-18.4,9.4c-15.8,0-26.8-12-26.8-29.3S157.1,23,172.9,23L172.9,23z M190.4,52.1
			c0-9.5-6.3-16.1-15-16.1c-8.7,0-14.9,6.6-14.9,16.1s6.3,16.3,14.9,16.3S190.4,61.6,190.4,52.1z"/>
		<path class="st5" d="M244.7,24.7v13.1h-8.8c-3.4,0-6.1,2.7-6.1,6.1v36h-14.9V44.1c0-10.7,8.7-19.4,19.4-19.4L244.7,24.7
			L244.7,24.7z"/>
		<path class="st5" d="M292.5,42.9c-2.7-3.9-6.6-6.9-13.1-6.9c-8.7,0-14.7,6.5-14.7,16.1s6,16.3,14.7,16.3c6.6,0,10.8-3.2,13.3-7.1
			l8.7,8.8c-4,6.6-12,11.5-22,11.5c-17.2,0-29.7-12.3-29.7-29.3S262.3,23,279.4,23c9.6,0,17,3.8,22.1,10.9L292.5,42.9L292.5,42.9z"
			/>
		<path class="st5" d="M309.8,79.8V0h14.9v24.7h14c10,0,18,8.1,18,18v37.1h-14.9V43.7c0-3.4-2.8-6.2-6.2-6.2h-10.9v42.4H309.8
			L309.8,79.8z"/>
		<path class="st5" d="M371.2,79.8V24.7h14.9v55.1H371.2z"/>
	</g>
</g>
<g>
	<path class="st5" d="M386.1,2c0-1.1-0.9-2-2-2h-10.9c-1.1,0-2,0.9-2,2v10.9c0,1.1,0.9,2,2,2h10.9c1.1,0,2-0.9,2-2V2z"/>
</g>
</svg>
